<?xml version="1.0" encoding="utf-8"?>
<!-- Generator: Adobe Illustrator 27.9.0, SVG Export Plug-In . SVG Version: 6.00 Build 0)  -->
<svg version="1.1" id="Layer_1" xmlns="http://www.w3.org/2000/svg" xmlns:xlink="http://www.w3.org/1999/xlink" x="0px" y="0px"
	 viewBox="0 0 722.9 342.5" style="enable-background:new 0 0 722.9 342.5;" xml:space="preserve">
<style type="text/css">
	.st0{clip-path:url(#SVGID_00000080911858139777528140000017129585857035800730_);}
	.st1{fill:#320073;}
	.st2{fill:#FFD200;}
	.st3{fill:#0096D2;}
	.st4{fill:#FF00A5;}
</style>
<g>
	<g>
		<g>
			<g>
				<defs>
					
						<rect id="SVGID_1_" x="-47" y="41.7" transform="matrix(0.7071 -0.7071 0.7071 0.7071 -20.1913 303.6857)" width="807" height="269"/>
				</defs>
				<clipPath id="SVGID_00000052090708920126111540000011676150243917222806_">
					<use xlink:href="#SVGID_1_"  style="overflow:visible;"/>
				</clipPath>
				<g style="clip-path:url(#SVGID_00000052090708920126111540000011676150243917222806_);">
					<path class="st1" d="M673.5-77.4L102.9,493.2l63.4,63.4L736.9-14L673.5-77.4z"/>
					<path class="st2" d="M201.8,487.4c0,0,0.1,0.1,0.1,0.1l2.1,6.7l2.1,6.7c0,0,0,0.1,0,0.1c0,0,0,0.1-0.1,0.1
						c-7.9,3.2-14.1,4.6-18.5,5.1s-7,0.3-7.7,0.2c-0.1,0-0.1,0-0.1,0c0,0-0.1,0.1,0,0.1c0.1,0.7,0.3,3.3-0.2,7.7
						c-0.6,4.4-2,10.6-5.1,18.5c0,0,0,0.1-0.1,0.1c0,0-0.1,0-0.1,0l-6.7-2l-6.7-2.1c0,0-0.1,0-0.1-0.1c0,0,0-0.1,0-0.1
						c0.3-0.8,1.5-4,2.6-7.6c1-3.6,1.8-7.7,1.3-10.1c-0.6-2.6-1.7-3.6-3.7-5c-2-1.4-4.8-3.1-8.7-7c-4.2-4.2-6.6-11-7.8-17.1
						c-1.3-6-1.5-11.2-1.6-12.2c0,0,0-0.1,0-0.1c0,0,0.1,0,0.1,0c1,0,6.2,0.3,12.2,1.5c6,1.3,12.8,3.6,17.1,7.8
						c3.9,3.9,5.6,6.7,7,8.7s2.4,3.1,5,3.7c2.4,0.5,6.5-0.3,10.1-1.3c3.6-1,6.9-2.3,7.6-2.6C201.8,487.4,201.8,487.4,201.8,487.4z
						 M265.1,424c-0.8,0.3-4,1.5-7.6,2.6c-3.6,1-7.7,1.8-10.1,1.3c-2.6-0.6-3.6-1.7-5-3.7c-1.4-2-3.1-4.8-7-8.7
						c-4.2-4.2-11-6.6-17.1-7.8c-6-1.3-11.2-1.5-12.2-1.6c0,0-0.1,0-0.1,0c0,0-0.1,0.1,0,0.1c0,1,0.3,6.2,1.6,12.2
						c1.3,6,3.6,12.8,7.8,17.1c3.9,3.9,6.7,5.6,8.7,7c2,1.4,3.1,2.4,3.7,5c0.5,2.4-0.3,6.5-1.3,10.1c-1,3.6-2.3,6.9-2.6,7.6
						c0,0,0,0.1,0,0.1s0.1,0.1,0.1,0.1l6.7,2.1l6.7,2c0,0,0.1,0,0.1,0c0,0,0.1,0,0.1-0.1c3.2-7.9,4.6-14.1,5.1-18.5
						c0.6-4.4,0.3-7,0.2-7.7c0-0.1,0-0.1,0-0.1s0.1-0.1,0.1,0c0.7,0.1,3.3,0.3,7.7-0.2c4.4-0.6,10.6-2,18.5-5.1c0,0,0.1,0,0.1-0.1
						c0,0,0-0.1,0-0.1l-2.1-6.7l-2.1-6.7c0,0,0-0.1-0.1-0.1C265.2,424,265.2,424,265.1,424z M328.5,360.6c-0.8,0.3-4,1.5-7.6,2.6
						c-3.6,1-7.7,1.8-10.1,1.3c-2.6-0.6-3.6-1.7-5-3.7c-1.4-2-3.1-4.8-7-8.7c-4.2-4.2-11-6.6-17.1-7.8c-6-1.3-11.2-1.5-12.2-1.6
						c0,0-0.1,0-0.1,0c0,0-0.1,0.1,0,0.1c0,1,0.3,6.2,1.6,12.2c1.3,6,3.6,12.8,7.8,17.1c3.9,3.9,6.7,5.6,8.7,7s3.1,2.4,3.7,5
						c0.5,2.4-0.3,6.5-1.3,10.1c-1,3.6-2.3,6.9-2.6,7.6c0,0,0,0.1,0,0.1s0.1,0.1,0.1,0.1l6.7,2.1l6.7,2.1c0,0,0.1,0,0.1,0
						c0,0,0.1,0,0.1-0.1c3.2-7.9,4.6-14.1,5.1-18.5c0.6-4.4,0.3-7,0.2-7.7c0-0.1,0-0.1,0-0.1s0.1-0.1,0.1,0c0.7,0.1,3.3,0.3,7.7-0.2
						c4.4-0.6,10.6-2,18.5-5.1c0,0,0.1,0,0.1-0.1c0,0,0-0.1,0-0.1l-2-6.7l-2.1-6.7c0,0,0-0.1-0.1-0.1
						C328.6,360.6,328.6,360.6,328.5,360.6z M391.9,297.2c-0.8,0.3-4,1.5-7.6,2.6c-3.6,1-7.7,1.8-10.1,1.3c-2.6-0.6-3.6-1.7-5-3.7
						c-1.4-2-3.1-4.8-7-8.7c-4.2-4.2-11-6.6-17.1-7.8c-6-1.3-11.2-1.5-12.2-1.6c0,0-0.1,0-0.1,0c0,0-0.1,0.1,0,0.1
						c0,1,0.3,6.2,1.6,12.2c1.3,6,3.6,12.8,7.8,17.1c3.9,3.9,6.7,5.6,8.7,7s3.1,2.4,3.7,5c0.5,2.4-0.3,6.5-1.3,10.1
						s-2.3,6.9-2.6,7.6c0,0,0,0.1,0,0.1c0,0,0.1,0.1,0.1,0.1l6.7,2.1l6.7,2.1c0,0,0.1,0,0.1,0c0,0,0.1,0,0.1-0.1
						c3.2-7.9,4.6-14.1,5.1-18.5c0.6-4.4,0.3-7,0.2-7.7c0-0.1,0-0.1,0-0.1c0,0,0.1-0.1,0.1,0c0.7,0.1,3.3,0.3,7.7-0.2
						c4.4-0.6,10.6-2,18.5-5.1c0,0,0.1,0,0.1-0.1c0,0,0-0.1,0-0.1l-2-6.7l-2.1-6.7c0,0,0-0.1-0.1-0.1
						C392,297.2,392,297.2,391.9,297.2z M455.3,233.8c-0.8,0.3-4,1.5-7.6,2.6c-3.6,1-7.7,1.8-10.1,1.3c-2.6-0.6-3.6-1.7-5-3.7
						c-1.4-2-3.1-4.8-7-8.7c-4.2-4.2-11-6.6-17.1-7.8c-6-1.3-11.2-1.5-12.2-1.6c0,0-0.1,0-0.1,0c0,0,0,0.1,0,0.1
						c0,1,0.3,6.2,1.5,12.2c1.3,6,3.6,12.8,7.8,17.1c3.9,3.9,6.7,5.6,8.7,7s3.1,2.4,3.7,5c0.5,2.4-0.3,6.5-1.3,10.1
						c-1,3.6-2.3,6.9-2.6,7.6c0,0,0,0.1,0,0.1c0,0,0.1,0.1,0.1,0.1l6.7,2.1l6.7,2.1c0,0,0.1,0,0.1,0c0,0,0.1,0,0.1-0.1
						c3.2-7.9,4.6-14.1,5.1-18.5s0.3-7,0.2-7.7c0-0.1,0-0.1,0-0.1c0,0,0.1-0.1,0.1,0c0.7,0.1,3.3,0.3,7.7-0.2
						c4.4-0.6,10.6-2,18.5-5.1c0,0,0.1,0,0.1-0.1c0,0,0-0.1,0-0.1l-2.1-6.7l-2-6.7c0,0,0-0.1-0.1-0.1
						C455.4,233.8,455.4,233.8,455.3,233.8z M518.7,170.4c-0.8,0.3-4,1.5-7.6,2.6c-3.6,1-7.7,1.8-10.1,1.3c-2.6-0.6-3.6-1.7-5-3.7
						s-3.1-4.8-7-8.7c-4.2-4.2-11-6.6-17.1-7.8c-6-1.3-11.2-1.5-12.2-1.6c0,0-0.1,0-0.1,0c0,0,0,0.1,0,0.1c0,1,0.3,6.2,1.5,12.2
						c1.3,6,3.6,12.8,7.8,17.1c3.9,3.9,6.7,5.6,8.7,7c2,1.4,3.1,2.4,3.7,5c0.5,2.4-0.3,6.5-1.3,10.1c-1,3.6-2.3,6.9-2.6,7.6
						c0,0,0,0.1,0,0.1c0,0,0.1,0.1,0.1,0.1l6.7,2.1l6.7,2.1c0,0,0.1,0,0.1,0c0,0,0.1,0,0.1-0.1c3.2-7.9,4.6-14.1,5.1-18.5
						c0.6-4.4,0.3-7,0.2-7.7c0-0.1,0-0.1,0-0.1c0,0,0.1-0.1,0.1,0c0.7,0.1,3.3,0.3,7.7-0.2c4.4-0.6,10.6-2,18.5-5.1
						c0,0,0.1,0,0.1-0.1c0,0,0-0.1,0-0.1l-2.1-6.7l-2-6.7c0,0,0-0.1-0.1-0.1C518.8,170.4,518.8,170.4,518.7,170.4z M582.1,107
						c-0.8,0.3-4,1.5-7.6,2.6c-3.6,1-7.7,1.8-10.1,1.3c-2.6-0.6-3.6-1.7-5-3.7c-1.4-2-3.1-4.8-7-8.7c-4.2-4.2-11-6.6-17.1-7.8
						c-6-1.3-11.2-1.5-12.2-1.6c0,0-0.1,0-0.1,0c0,0,0,0.1,0,0.1c0,1,0.3,6.2,1.5,12.2c1.3,6,3.6,12.8,7.8,17.1
						c3.9,3.9,6.7,5.6,8.7,7c2,1.4,3.1,2.4,3.7,5c0.5,2.4-0.3,6.5-1.3,10.1c-1,3.6-2.3,6.9-2.6,7.6c0,0,0,0.1,0,0.1
						c0,0,0.1,0.1,0.1,0.1l6.7,2.1l6.7,2.1c0,0,0.1,0,0.1,0c0,0,0.1,0,0.1-0.1c3.2-7.9,4.6-14.1,5.1-18.5c0.6-4.4,0.3-7,0.2-7.7
						c0-0.1,0-0.1,0-0.1c0,0,0.1-0.1,0.1,0c0.7,0.1,3.3,0.3,7.7-0.2c4.4-0.6,10.6-2,18.5-5.1c0,0,0.1,0,0.1-0.1c0,0,0-0.1,0-0.1
						l-2.1-6.7l-2-6.7c0,0,0-0.1-0.1-0.1C582.2,107,582.2,107,582.1,107z M645.5,43.6c-0.8,0.3-4,1.5-7.6,2.6
						c-3.6,1-7.7,1.8-10.1,1.3c-2.6-0.6-3.6-1.7-5-3.7c-1.4-2-3.1-4.8-7-8.7c-4.2-4.2-11-6.6-17.1-7.8c-6-1.3-11.2-1.5-12.2-1.6
						c0,0-0.1,0-0.1,0c0,0,0,0.1,0,0.1c0,1,0.3,6.2,1.6,12.2c1.3,6,3.6,12.8,7.8,17.1c3.9,3.9,6.7,5.6,8.7,7c2,1.4,3.1,2.4,3.7,5
						c0.5,2.4-0.3,6.5-1.3,10.1c-1,3.6-2.3,6.9-2.6,7.6c0,0,0,0.1,0,0.1c0,0,0.1,0.1,0.1,0.1l6.7,2.1l6.7,2.1c0,0,0.1,0,0.1,0
						c0,0,0.1,0,0.1-0.1c3.2-7.9,4.6-14.1,5.1-18.5c0.6-4.4,0.3-7,0.2-7.7c0-0.1,0-0.1,0-0.1c0,0,0.1-0.1,0.1,0
						c0.7,0.1,3.3,0.3,7.7-0.2c4.4-0.6,10.6-2,18.5-5.1c0,0,0.1,0,0.1-0.1c0,0,0-0.1,0-0.1l-2.1-6.7l-2.1-6.7c0,0,0-0.1-0.1-0.1
						C645.6,43.6,645.6,43.6,645.5,43.6z M709.1-19.8c0,0-0.1,0-0.1,0c-0.8,0.3-4,1.5-7.6,2.6c-3.6,1-7.7,1.8-10.1,1.3
						c-2.6-0.6-3.6-1.7-5-3.7c-1.4-2-3.1-4.8-7-8.7c-4.2-4.2-11-6.6-17.1-7.8c-6-1.3-11.2-1.5-12.2-1.5c0,0-0.1,0-0.1,0
						c0,0,0,0.1,0,0.1c0,1,0.3,6.2,1.6,12.2c1.3,6,3.6,12.8,7.8,17.1c3.9,3.9,6.7,5.6,8.7,7c2,1.4,3.1,2.4,3.7,5
						c0.5,2.4-0.3,6.5-1.3,10.1c-1,3.6-2.3,6.9-2.6,7.6c0,0,0,0.1,0,0.1c0,0,0.1,0.1,0.1,0.1l6.7,2.1l6.7,2.1c0,0,0.1,0,0.1,0
						c0,0,0.1,0,0.1-0.1c3.2-7.9,4.6-14.1,5.1-18.5c0.6-4.4,0.3-7,0.2-7.7c0-0.1,0-0.1,0-0.1c0,0,0.1-0.1,0.1,0
						c0.7,0.1,3.3,0.3,7.7-0.2c4.4-0.6,10.6-2,18.5-5.1c0,0,0.1,0,0.1-0.1c0,0,0-0.1,0-0.1l-2.1-6.7l-2.1-6.7
						C709.1-19.8,709.1-19.8,709.1-19.8z"/>
					<path class="st3" d="M610.1-140.8L39.5,429.8l63.4,63.4L673.5-77.4L610.1-140.8z"/>
					<path class="st1" d="M118.2,406.8l0.8-8.3c0-0.1,0-0.1-0.1-0.2s-0.1,0-0.2,0l-6.2,5.5l-6.2,5.5c0,0-0.1,0-0.1,0
						c0,0-0.1,0-0.1-0.1l-4.2-7.2l-4.2-7.2c0-0.1-0.1-0.1-0.2-0.1c-0.1,0-0.1,0.1-0.1,0.1l-1.8,8.1l-1.8,8.1c0,0.1,0,0.1-0.1,0.1
						c0,0-0.1,0-0.1,0l-7.7-3.3l-7.7-3.3c-0.1,0-0.1,0-0.2,0c0,0-0.1,0.1,0,0.2l3.3,7.7l3.3,7.7c0,0,0,0.1,0,0.1
						c0,0-0.1,0.1-0.1,0.1l-8.1,1.8l-8.1,1.8c-0.1,0-0.1,0.1-0.1,0.1s0,0.1,0.1,0.2l7.2,4.2l7.2,4.2c0,0,0.1,0.1,0.1,0.1
						c0,0,0,0.1,0,0.1l-5.5,6.2l-5.5,6.2c-0.1,0.1-0.1,0.1,0,0.2c0,0.1,0.1,0.1,0.2,0.1l8.3-0.8l8.3-0.8c0.1,0,0.1,0,0.1,0
						c0,0,0.1,0.1,0,0.1l-0.8,8.3l-0.8,8.3c0,0.1,0,0.1,0.1,0.2c0.1,0,0.1,0,0.2,0l6.2-5.5l6.2-5.5c0,0,0.1,0,0.1,0
						c0,0,0.1,0,0.1,0.1l4.2,7.2l4.2,7.2c0,0.1,0.1,0.1,0.2,0.1c0.1,0,0.1-0.1,0.1-0.1l1.8-8.1l1.8-8.1c0-0.1,0-0.1,0.1-0.1
						c0,0,0.1,0,0.1,0l7.7,3.3l7.7,3.3c0.1,0,0.1,0,0.2,0s0.1-0.1,0-0.2l-3.3-7.7l-3.3-7.7c0,0,0-0.1,0-0.1c0,0,0.1-0.1,0.1-0.1
						l8.1-1.8l8.1-1.8c0.1,0,0.1-0.1,0.1-0.1c0-0.1,0-0.1-0.1-0.2l-7.2-4.2l-7.2-4.2c0,0-0.1-0.1-0.1-0.1c0,0,0-0.1,0-0.1l5.5-6.2
						l5.5-6.2c0-0.1,0.1-0.1,0-0.2c0-0.1-0.1-0.1-0.2-0.1l-8.3,0.8l-8.3,0.8c-0.1,0-0.1,0-0.1,0c0,0-0.1-0.1,0-0.1L118.2,406.8z
						 M114.7,425c0.6,1.5,0.9,3.2,0.9,4.8c0,1.6-0.3,3.3-0.9,4.8c-0.6,1.5-1.5,3-2.8,4.2c-1.2,1.2-2.7,2.2-4.2,2.8s-3.2,0.9-4.8,0.9
						c-1.6,0-3.3-0.3-4.8-0.9c-1.5-0.6-3-1.5-4.2-2.8s-2.2-2.7-2.8-4.2c-0.6-1.5-0.9-3.2-0.9-4.8c0-1.6,0.3-3.3,0.9-4.8
						c0.6-1.5,1.6-3,2.8-4.2c1.2-1.2,2.7-2.2,4.2-2.8c1.5-0.6,3.2-0.9,4.8-0.9c1.6,0,3.3,0.3,4.8,0.9c1.5,0.6,3,1.6,4.2,2.8
						C113.1,422.1,114,423.5,114.7,425z M181.6,343.4l0.8-8.3c0-0.1,0-0.1-0.1-0.2c-0.1,0-0.1,0-0.2,0l-6.2,5.5l-6.2,5.5
						c0,0-0.1,0-0.1,0c0,0-0.1,0-0.1-0.1l-4.2-7.2l-4.2-7.2c0-0.1-0.1-0.1-0.2-0.1c-0.1,0-0.1,0.1-0.1,0.1l-1.8,8.1l-1.8,8.1
						c0,0.1,0,0.1-0.1,0.1c0,0-0.1,0-0.1,0l-7.7-3.3l-7.7-3.3c-0.1,0-0.1,0-0.2,0c0,0-0.1,0.1,0,0.2l3.3,7.7l3.3,7.7
						c0,0,0,0.1,0,0.1c0,0-0.1,0.1-0.1,0.1l-8.1,1.8l-8.1,1.8c-0.1,0-0.1,0.1-0.1,0.1c0,0.1,0,0.1,0.1,0.2l7.2,4.2l7.2,4.2
						c0,0,0.1,0.1,0.1,0.1c0,0,0,0.1,0,0.1l-5.5,6.2l-5.5,6.2c-0.1,0.1-0.1,0.1,0,0.2c0,0.1,0.1,0.1,0.2,0.1l8.3-0.8l8.3-0.8
						c0.1,0,0.1,0,0.1,0c0,0,0.1,0.1,0,0.1l-0.8,8.3l-0.8,8.3c0,0.1,0,0.1,0.1,0.2c0.1,0,0.1,0,0.2,0l6.2-5.5l6.2-5.5
						c0,0,0.1,0,0.1,0c0,0,0.1,0,0.1,0.1l4.2,7.2l4.2,7.2c0,0.1,0.1,0.1,0.2,0.1c0.1,0,0.1-0.1,0.1-0.1l1.8-8.1l1.8-8.1
						c0-0.1,0-0.1,0.1-0.1c0,0,0.1,0,0.1,0l7.7,3.3l7.7,3.3c0.1,0,0.1,0,0.2,0s0.1-0.1,0-0.2l-3.3-7.7l-3.3-7.7c0,0,0-0.1,0-0.1
						c0,0,0.1-0.1,0.1-0.1l8.1-1.8l8.1-1.8c0.1,0,0.1-0.1,0.1-0.1c0-0.1,0-0.1-0.1-0.2l-7.2-4.2l-7.2-4.2c0,0-0.1-0.1-0.1-0.1
						c0,0,0-0.1,0-0.1l5.5-6.2l5.5-6.2c0.1-0.1,0.1-0.1,0-0.2c0-0.1-0.1-0.1-0.2-0.1l-8.3,0.8l-8.3,0.8c-0.1,0-0.1,0-0.1,0
						c0,0-0.1-0.1,0-0.1L181.6,343.4z M178.1,361.6c0.6,1.5,0.9,3.2,0.9,4.8c0,1.6-0.3,3.3-0.9,4.8c-0.6,1.5-1.6,3-2.8,4.2
						c-1.2,1.2-2.7,2.2-4.2,2.8c-1.5,0.6-3.2,0.9-4.8,0.9c-1.6,0-3.3-0.3-4.8-0.9c-1.5-0.6-3-1.5-4.2-2.8s-2.2-2.7-2.8-4.2
						c-0.6-1.5-0.9-3.2-0.9-4.8c0-1.6,0.3-3.3,0.9-4.8c0.6-1.5,1.5-3,2.8-4.2c1.2-1.2,2.7-2.2,4.2-2.8c1.5-0.6,3.2-0.9,4.8-0.9
						c1.6,0,3.3,0.3,4.8,0.9c1.5,0.6,3,1.5,4.2,2.8S177.4,360.1,178.1,361.6z M245,280l0.8-8.3c0-0.1,0-0.1-0.1-0.2
						c-0.1,0-0.1,0-0.2,0l-6.2,5.5l-6.2,5.5c0,0-0.1,0-0.1,0c0,0-0.1,0-0.1-0.1l-4.2-7.2l-4.2-7.2c0-0.1-0.1-0.1-0.2-0.1
						c-0.1,0-0.1,0.1-0.1,0.1l-1.8,8.1l-1.8,8.1c0,0.1,0,0.1-0.1,0.1c0,0-0.1,0-0.1,0l-7.7-3.3l-7.7-3.3c-0.1,0-0.1,0-0.2,0
						c0,0-0.1,0.1,0,0.2l3.3,7.7l3.3,7.7c0,0,0,0.1,0,0.1c0,0-0.1,0.1-0.1,0.1l-8.1,1.8l-8.1,1.8c-0.1,0-0.1,0.1-0.1,0.1
						c0,0.1,0,0.1,0.1,0.2l7.2,4.2l7.2,4.2c0,0,0.1,0.1,0.1,0.1c0,0,0,0.1,0,0.1l-5.5,6.2l-5.5,6.2c-0.1,0.1-0.1,0.1,0,0.2
						c0,0.1,0.1,0.1,0.2,0.1l8.3-0.8l8.3-0.8c0.1,0,0.1,0,0.1,0c0,0,0.1,0.1,0,0.1l-0.8,8.3l-0.8,8.3c0,0.1,0,0.1,0.1,0.2
						c0.1,0,0.1,0,0.2,0l6.2-5.5l6.2-5.5c0,0,0.1,0,0.1,0s0.1,0,0.1,0.1l4.2,7.2l4.2,7.2c0,0.1,0.1,0.1,0.2,0.1
						c0.1,0,0.1-0.1,0.1-0.1l1.8-8.1l1.8-8.1c0,0,0-0.1,0.1-0.1c0,0,0.1,0,0.1,0l7.7,3.3l7.7,3.3c0.1,0,0.1,0,0.2,0s0.1-0.1,0-0.2
						l-3.3-7.7l-3.3-7.7c0,0,0-0.1,0-0.1c0,0,0.1-0.1,0.1-0.1l8.1-1.8l8.1-1.8c0.1,0,0.1-0.1,0.1-0.1c0-0.1,0-0.1-0.1-0.2l-7.2-4.2
						l-7.2-4.2c0,0-0.1-0.1-0.1-0.1c0,0,0-0.1,0-0.1l5.5-6.2l5.5-6.2c0-0.1,0.1-0.1,0-0.2c0-0.1-0.1-0.1-0.2-0.1l-8.3,0.8l-8.3,0.8
						c-0.1,0-0.1,0-0.1,0c0,0-0.1-0.1,0-0.1L245,280z M241.5,298.2c0.6,1.5,0.9,3.2,0.9,4.8c0,1.6-0.3,3.3-0.9,4.8s-1.6,3-2.8,4.2
						c-1.2,1.2-2.7,2.2-4.2,2.8c-1.5,0.6-3.2,0.9-4.8,0.9c-1.6,0-3.3-0.3-4.8-0.9c-1.5-0.6-3-1.5-4.2-2.8c-1.2-1.2-2.2-2.7-2.8-4.2
						c-0.6-1.5-0.9-3.2-0.9-4.8c0-1.6,0.3-3.2,0.9-4.8c0.6-1.5,1.6-3,2.8-4.2c1.2-1.2,2.7-2.2,4.2-2.8s3.2-0.9,4.8-0.9
						c1.6,0,3.3,0.3,4.8,0.9c1.5,0.6,3,1.5,4.2,2.8C239.9,295.3,240.8,296.7,241.5,298.2z M308.4,216.6l0.8-8.3c0-0.1,0-0.1-0.1-0.2
						c-0.1,0-0.1,0-0.2,0l-6.2,5.5l-6.2,5.5c0,0-0.1,0-0.1,0c0,0-0.1,0-0.1-0.1L292,212l-4.2-7.2c0-0.1-0.1-0.1-0.2-0.1
						c-0.1,0-0.1,0.1-0.1,0.1l-1.8,8.1l-1.8,8.1c0,0.1,0,0.1-0.1,0.1c0,0-0.1,0-0.1,0l-7.7-3.3l-7.7-3.3c-0.1,0-0.1,0-0.2,0
						c0,0-0.1,0.1,0,0.2l3.3,7.7l3.3,7.7c0,0,0,0.1,0,0.1c0,0-0.1,0.1-0.1,0.1l-8.1,1.8l-8.1,1.8c-0.1,0-0.1,0.1-0.1,0.1
						c0,0.1,0,0.1,0.1,0.2l7.2,4.2l7.2,4.2c0,0,0.1,0.1,0.1,0.1c0,0,0,0.1,0,0.1l-5.5,6.2l-5.5,6.2c-0.1,0.1-0.1,0.1,0,0.2
						c0,0.1,0.1,0.1,0.2,0.1l8.3-0.8l8.3-0.8c0.1,0,0.1,0,0.1,0c0,0,0.1,0.1,0,0.1l-0.8,8.3l-0.8,8.3c0,0.1,0,0.1,0.1,0.2
						c0.1,0,0.1,0,0.2,0l6.2-5.5l6.2-5.5c0,0,0.1,0,0.1,0c0,0,0.1,0,0.1,0.1l4.2,7.2l4.2,7.2c0,0.1,0.1,0.1,0.2,0.1
						c0.1,0,0.1-0.1,0.1-0.1l1.8-8.1l1.8-8.1c0-0.1,0-0.1,0.1-0.1c0,0,0.1,0,0.1,0l7.7,3.3l7.7,3.3c0.1,0,0.1,0,0.2,0
						c0,0,0.1-0.1,0-0.2l-3.3-7.7l-3.3-7.7c0,0,0-0.1,0-0.1c0,0,0.1-0.1,0.1-0.1l8.1-1.8l8.1-1.8c0.1,0,0.1-0.1,0.1-0.1
						c0-0.1,0-0.1-0.1-0.2l-7.2-4.2l-7.2-4.2c0,0-0.1-0.1-0.1-0.1c0,0,0-0.1,0-0.1l5.5-6.2l5.5-6.2c0.1-0.1,0.1-0.1,0-0.2
						c0-0.1-0.1-0.1-0.2-0.1l-8.3,0.8l-8.3,0.8c-0.1,0-0.1,0-0.1,0c0,0-0.1-0.1,0-0.1L308.4,216.6z M304.9,234.8
						c0.6,1.5,0.9,3.2,0.9,4.8c0,1.6-0.3,3.2-0.9,4.8s-1.5,3-2.8,4.2c-1.2,1.2-2.7,2.2-4.2,2.8c-1.5,0.6-3.2,0.9-4.8,0.9
						c-1.6,0-3.3-0.3-4.8-0.9c-1.5-0.6-3-1.5-4.2-2.8c-1.2-1.2-2.2-2.7-2.8-4.2s-0.9-3.2-0.9-4.8c0-1.6,0.3-3.3,0.9-4.8
						s1.6-3,2.8-4.2s2.7-2.2,4.2-2.8s3.2-0.9,4.8-0.9c1.6,0,3.3,0.3,4.8,0.9s3,1.5,4.2,2.8C303.3,231.9,304.2,233.3,304.9,234.8z
						 M371.8,153.2l0.8-8.3c0-0.1,0-0.1-0.1-0.2c-0.1,0-0.1,0-0.2,0l-6.2,5.5l-6.2,5.5c0,0-0.1,0-0.1,0s-0.1,0-0.1-0.1l-4.2-7.2
						l-4.2-7.2c0-0.1-0.1-0.1-0.2-0.1c-0.1,0-0.1,0.1-0.1,0.1l-1.8,8.1l-1.8,8.1c0,0.1,0,0.1-0.1,0.1c0,0-0.1,0-0.1,0l-7.7-3.3
						l-7.7-3.3c-0.1,0-0.1,0-0.2,0c0,0-0.1,0.1,0,0.2l3.3,7.7l3.3,7.7c0,0,0,0.1,0,0.1c0,0-0.1,0.1-0.1,0.1l-8.1,1.8l-8.1,1.8
						c-0.1,0-0.1,0.1-0.1,0.1c0,0.1,0,0.1,0.1,0.2l7.2,4.2l7.2,4.2c0,0,0.1,0.1,0.1,0.1c0,0,0,0.1,0,0.1l-5.5,6.2l-5.5,6.2
						c0,0.1-0.1,0.1,0,0.2c0,0.1,0.1,0.1,0.2,0.1l8.3-0.8l8.3-0.8c0.1,0,0.1,0,0.1,0c0,0,0.1,0.1,0,0.1l-0.8,8.3l-0.8,8.3
						c0,0.1,0,0.1,0.1,0.2c0.1,0,0.1,0,0.2,0l6.2-5.5l6.2-5.5c0,0,0.1,0,0.1,0c0,0,0.1,0,0.1,0.1l4.2,7.2l4.2,7.2
						c0,0.1,0.1,0.1,0.2,0.1c0.1,0,0.1-0.1,0.1-0.1l1.8-8.1l1.8-8.1c0-0.1,0-0.1,0.1-0.1c0,0,0.1,0,0.1,0l7.7,3.3l7.7,3.3
						c0.1,0,0.1,0,0.2,0c0,0,0.1-0.1,0-0.2l-3.3-7.7l-3.3-7.7c0,0,0-0.1,0-0.1c0,0,0.1-0.1,0.1-0.1l8.1-1.8l8.1-1.8
						c0.1,0,0.1-0.1,0.1-0.1c0-0.1,0-0.1-0.1-0.2l-7.2-4.2l-7.2-4.2c0,0-0.1-0.1-0.1-0.1c0,0,0-0.1,0-0.1l5.5-6.2l5.5-6.2
						c0-0.1,0.1-0.1,0-0.2c0-0.1-0.1-0.1-0.2-0.1l-8.3,0.8l-8.3,0.8c-0.1,0-0.1,0-0.1,0c0,0-0.1-0.1,0-0.1L371.8,153.2z
						 M368.3,171.4c0.6,1.5,0.9,3.2,0.9,4.8c0,1.6-0.3,3.2-0.9,4.8c-0.6,1.5-1.5,3-2.8,4.2c-1.2,1.2-2.7,2.2-4.2,2.8
						s-3.2,0.9-4.8,0.9s-3.3-0.3-4.8-0.9s-3-1.5-4.2-2.8c-1.2-1.2-2.2-2.7-2.8-4.2c-0.6-1.5-0.9-3.2-0.9-4.8c0-1.6,0.3-3.3,0.9-4.8
						s1.6-3,2.8-4.2s2.7-2.2,4.2-2.8s3.2-0.9,4.8-0.9s3.3,0.3,4.8,0.9s3,1.5,4.2,2.8C366.7,168.5,367.6,169.9,368.3,171.4z
						 M435.2,89.8l0.8-8.3c0-0.1,0-0.1-0.1-0.2c-0.1,0-0.1,0-0.2,0l-6.2,5.5l-6.2,5.5c0,0-0.1,0-0.1,0c0,0-0.1,0-0.1-0.1l-4.2-7.2
						l-4.2-7.2c0-0.1-0.1-0.1-0.2-0.1c-0.1,0-0.1,0.1-0.1,0.1l-1.8,8.1l-1.8,8.1c0,0.1,0,0.1-0.1,0.1c0,0-0.1,0-0.1,0l-7.7-3.3
						l-7.7-3.3c-0.1,0-0.1,0-0.2,0c0,0-0.1,0.1,0,0.2l3.3,7.7l3.3,7.7c0,0,0,0.1,0,0.1c0,0-0.1,0.1-0.1,0.1l-8.1,1.8l-8.1,1.8
						c-0.1,0-0.1,0.1-0.1,0.1c0,0.1,0,0.1,0.1,0.2l7.2,4.2l7.2,4.2c0,0,0.1,0.1,0.1,0.1c0,0,0,0.1,0,0.1l-5.5,6.2l-5.5,6.2
						c0,0.1-0.1,0.1,0,0.2c0,0.1,0.1,0.1,0.2,0.1l8.3-0.8l8.3-0.8c0.1,0,0.1,0,0.1,0c0,0,0.1,0.1,0,0.1l-0.8,8.3l-0.8,8.3
						c0,0.1,0,0.1,0.1,0.2c0.1,0,0.1,0,0.2,0l6.2-5.5l6.2-5.5c0,0,0.1,0,0.1,0c0,0,0.1,0,0.1,0.1l4.2,7.2l4.2,7.2
						c0,0.1,0.1,0.1,0.2,0.1c0.1,0,0.1-0.1,0.1-0.1l1.8-8.1l1.8-8.1c0-0.1,0-0.1,0.1-0.1c0,0,0.1,0,0.1,0l7.7,3.3l7.7,3.3
						c0.1,0,0.1,0,0.2,0c0,0,0.1-0.1,0-0.2l-3.3-7.7l-3.3-7.7c0,0,0-0.1,0-0.1c0,0,0.1-0.1,0.1-0.1l8.1-1.8l8.1-1.8
						c0.1,0,0.1-0.1,0.1-0.1c0-0.1,0-0.1-0.1-0.2l-7.2-4.2l-7.2-4.2c0,0-0.1-0.1-0.1-0.1c0,0,0-0.1,0-0.1l5.5-6.2l5.5-6.2
						c0-0.1,0.1-0.1,0-0.2c0-0.1-0.1-0.1-0.2-0.1l-8.3,0.8l-8.3,0.8c-0.1,0-0.1,0-0.1,0c0,0-0.1-0.1,0-0.1L435.2,89.8z M431.7,108
						c0.6,1.5,0.9,3.2,0.9,4.8c0,1.6-0.3,3.3-0.9,4.8s-1.5,3-2.8,4.2c-1.2,1.2-2.7,2.2-4.2,2.8s-3.2,0.9-4.8,0.9
						c-1.6,0-3.3-0.3-4.8-0.9s-3-1.6-4.2-2.8c-1.2-1.2-2.2-2.7-2.8-4.2c-0.6-1.5-0.9-3.2-0.9-4.8c0-1.6,0.3-3.3,0.9-4.8
						c0.6-1.5,1.5-3,2.8-4.2s2.7-2.2,4.2-2.8c1.5-0.6,3.2-0.9,4.8-0.9c1.6,0,3.3,0.3,4.8,0.9c1.5,0.6,3,1.6,4.2,2.8
						C430.1,105.1,431,106.5,431.7,108z M498.6,26.4l0.8-8.3c0-0.1,0-0.1-0.1-0.2c-0.1,0-0.1,0-0.2,0l-6.2,5.5l-6.2,5.5
						c0,0-0.1,0-0.1,0c0,0-0.1,0-0.1-0.1l-4.2-7.2l-4.2-7.2c0-0.1-0.1-0.1-0.2-0.1c-0.1,0-0.1,0.1-0.1,0.1l-1.8,8.1l-1.8,8.1
						c0,0.1,0,0.1-0.1,0.1c0,0-0.1,0-0.1,0l-7.7-3.3l-7.7-3.3c-0.1,0-0.1,0-0.2,0c0,0-0.1,0.1,0,0.2l3.3,7.7l3.3,7.7
						c0,0,0,0.1,0,0.1c0,0-0.1,0.1-0.1,0.1l-8.1,1.8l-8.1,1.8c-0.1,0-0.1,0.1-0.1,0.1c0,0.1,0,0.1,0.1,0.2l7.2,4.2l7.2,4.2
						c0,0,0.1,0.1,0.1,0.1c0,0,0,0.1,0,0.1l-5.5,6.2l-5.5,6.2c0,0.1-0.1,0.1,0,0.2c0,0.1,0.1,0.1,0.2,0.1l8.3-0.8l8.3-0.8
						c0.1,0,0.1,0,0.1,0c0,0,0.1,0.1,0,0.1l-0.8,8.3l-0.8,8.3c0,0.1,0,0.1,0.1,0.2c0.1,0,0.1,0,0.2,0l6.2-5.5l6.2-5.5
						c0,0,0.1,0,0.1,0c0,0,0.1,0,0.1,0.1l4.2,7.2l4.2,7.2c0,0.1,0.1,0.1,0.2,0.1c0.1,0,0.1-0.1,0.1-0.1l1.8-8.1l1.8-8.1
						c0-0.1,0-0.1,0.1-0.1c0,0,0.1,0,0.1,0l7.7,3.3l7.7,3.3c0.1,0,0.1,0,0.2,0c0,0,0.1-0.1,0-0.2l-3.3-7.7l-3.3-7.7c0,0,0-0.1,0-0.1
						c0,0,0.1-0.1,0.1-0.1l8.1-1.8l8.1-1.8c0.1,0,0.1-0.1,0.1-0.1c0-0.1,0-0.1-0.1-0.2l-7.2-4.2l-7.2-4.2c0,0-0.1-0.1-0.1-0.1
						c0,0,0-0.1,0-0.1l5.5-6.2l5.5-6.2c0-0.1,0.1-0.1,0-0.2c0-0.1-0.1-0.1-0.2-0.1l-8.3,0.8l-8.3,0.8c-0.1,0-0.1,0-0.1,0
						c0,0-0.1-0.1,0-0.1L498.6,26.4z M495.1,44.6c0.6,1.5,0.9,3.2,0.9,4.8c0,1.6-0.3,3.3-0.9,4.8c-0.6,1.5-1.5,3-2.8,4.2
						c-1.2,1.2-2.7,2.2-4.2,2.8s-3.2,0.9-4.8,0.9c-1.6,0-3.3-0.3-4.8-0.9s-3-1.6-4.2-2.8c-1.2-1.2-2.2-2.7-2.8-4.2
						c-0.6-1.5-0.9-3.2-0.9-4.8c0-1.6,0.3-3.3,0.9-4.8c0.6-1.5,1.5-3,2.8-4.2s2.7-2.2,4.2-2.8s3.2-0.9,4.8-0.9
						c1.6,0,3.3,0.3,4.8,0.9s3,1.6,4.2,2.8C493.5,41.7,494.4,43.1,495.1,44.6z M562-37l0.8-8.3c0-0.1,0-0.1-0.1-0.2
						c-0.1,0-0.1,0-0.2,0l-6.2,5.5l-6.2,5.5c0,0-0.1,0-0.1,0c0,0-0.1,0-0.1-0.1l-4.2-7.2l-4.2-7.2c0-0.1-0.1-0.1-0.2-0.1
						c-0.1,0-0.1,0.1-0.1,0.1l-1.8,8.1l-1.8,8.1c0,0.1,0,0.1-0.1,0.1c0,0-0.1,0-0.1,0l-7.7-3.3l-7.7-3.3c-0.1,0-0.1,0-0.2,0
						c0,0-0.1,0.1,0,0.2l3.3,7.7l3.3,7.7c0,0,0,0.1,0,0.1c0,0-0.1,0.1-0.1,0.1l-8.1,1.8l-8.1,1.8c-0.1,0-0.1,0.1-0.1,0.1
						c0,0.1,0,0.1,0.1,0.2l7.2,4.2l7.2,4.2c0,0,0.1,0.1,0.1,0.1c0,0,0,0.1,0,0.1l-5.5,6.2l-5.5,6.2c0,0.1-0.1,0.1,0,0.2
						c0,0.1,0.1,0.1,0.2,0.1l8.3-0.8l8.3-0.8c0.1,0,0.1,0,0.1,0c0,0,0.1,0.1,0,0.1L531.4,9l-0.8,8.3c0,0.1,0,0.1,0.1,0.2
						c0.1,0,0.1,0,0.2,0l6.2-5.5l6.2-5.5c0,0,0.1,0,0.1,0c0,0,0.1,0,0.1,0.1l4.2,7.2l4.2,7.2c0,0.1,0.1,0.1,0.2,0.1
						c0.1,0,0.1-0.1,0.1-0.1l1.8-8.1l1.8-8.1c0-0.1,0-0.1,0.1-0.1c0,0,0.1,0,0.1,0l7.7,3.3l7.7,3.3c0.1,0,0.1,0,0.2,0
						c0,0,0.1-0.1,0-0.2l-3.3-7.7l-3.3-7.7c0,0,0-0.1,0-0.1c0,0,0.1-0.1,0.1-0.1l8.1-1.8l8.1-1.8c0.1,0,0.1-0.1,0.1-0.1
						c0-0.1,0-0.1-0.1-0.2l-7.2-4.2l-7.2-4.2c0,0-0.1-0.1-0.1-0.1c0,0,0-0.1,0-0.1l5.5-6.2l5.5-6.2c0-0.1,0.1-0.1,0-0.2
						c0-0.1-0.1-0.1-0.2-0.1l-8.3,0.8l-8.3,0.8c-0.1,0-0.1,0-0.1,0c0,0-0.1-0.1,0-0.1L562-37z M558.5-18.8c0.6,1.5,0.9,3.2,0.9,4.8
						s-0.3,3.3-0.9,4.8s-1.5,3-2.8,4.2c-1.2,1.2-2.7,2.2-4.2,2.8c-1.5,0.6-3.2,0.9-4.8,0.9c-1.6,0-3.3-0.3-4.8-0.9s-3-1.6-4.2-2.8
						c-1.2-1.2-2.2-2.7-2.8-4.2c-0.6-1.5-0.9-3.2-0.9-4.8s0.3-3.3,0.9-4.8s1.6-3,2.8-4.2c1.2-1.2,2.7-2.2,4.2-2.8s3.2-0.9,4.8-0.9
						c1.6,0,3.2,0.3,4.8,0.9c1.5,0.6,3,1.6,4.2,2.8C556.9-21.7,557.8-20.3,558.5-18.8z M633.1-92.7l-8.3,0.8c-0.1,0-0.1,0-0.1,0
						c0,0-0.1-0.1,0-0.1l0.8-8.3l0.8-8.3c0-0.1,0-0.1-0.1-0.2c-0.1,0-0.1,0-0.2,0l-6.2,5.5l-6.2,5.5c0,0-0.1,0-0.1,0
						c0,0-0.1,0-0.1-0.1L609-105l-4.2-7.2c0-0.1-0.1-0.1-0.2-0.1c-0.1,0-0.1,0.1-0.1,0.1l-1.8,8.1l-1.8,8.1c0,0.1,0,0.1-0.1,0.1
						s-0.1,0-0.1,0l-7.7-3.3l-7.7-3.3c-0.1,0-0.1,0-0.2,0c0,0-0.1,0.1,0,0.2l3.3,7.7l3.3,7.7c0,0,0,0.1,0,0.1c0,0-0.1,0.1-0.1,0.1
						l-8.1,1.8l-8.1,1.8c-0.1,0-0.1,0.1-0.1,0.1c0,0.1,0,0.1,0.1,0.2l7.2,4.2l7.2,4.2c0,0,0.1,0.1,0.1,0.1c0,0,0,0.1,0,0.1l-5.5,6.2
						l-5.5,6.2c0,0.1-0.1,0.1,0,0.2c0,0.1,0.1,0.1,0.2,0.1l8.3-0.8l8.3-0.8c0.1,0,0.1,0,0.1,0c0,0,0.1,0.1,0,0.1l-0.8,8.3l-0.8,8.3
						c0,0.1,0,0.1,0.1,0.2c0.1,0,0.1,0,0.2,0l6.2-5.5l6.2-5.5c0,0,0.1,0,0.1,0c0,0,0.1,0,0.1,0.1l4.2,7.2l4.2,7.2
						c0,0.1,0.1,0.1,0.2,0.1c0.1,0,0.1-0.1,0.1-0.1l1.8-8.1l1.8-8.1c0-0.1,0-0.1,0.1-0.1c0,0,0.1,0,0.1,0l7.7,3.3l7.7,3.3
						c0.1,0,0.1,0,0.2,0s0.1-0.1,0-0.2l-3.3-7.7l-3.3-7.7c0,0,0-0.1,0-0.1c0,0,0.1-0.1,0.1-0.1l8.1-1.8l8.1-1.8
						c0.1,0,0.1-0.1,0.1-0.1c0-0.1,0-0.1-0.1-0.2l-7.2-4.2l-7.2-4.2c0,0-0.1-0.1-0.1-0.1c0,0,0-0.1,0-0.1L636-87l5.5-6.2
						c0-0.1,0.1-0.1,0-0.2s-0.1-0.1-0.2-0.1L633.1-92.7z M621.9-82.2c0.6,1.5,0.9,3.2,0.9,4.8c0,1.6-0.3,3.3-0.9,4.8s-1.5,3-2.8,4.2
						c-1.2,1.2-2.7,2.2-4.2,2.8c-1.5,0.6-3.2,0.9-4.8,0.9c-1.6,0-3.3-0.3-4.8-0.9c-1.5-0.6-3-1.6-4.2-2.8c-1.2-1.2-2.2-2.7-2.8-4.2
						s-0.9-3.2-0.9-4.8c0-1.6,0.3-3.3,0.9-4.8s1.6-3,2.8-4.2s2.7-2.2,4.2-2.8c1.5-0.6,3.2-0.9,4.8-0.9c1.6,0,3.2,0.3,4.8,0.9
						c1.5,0.6,3,1.6,4.2,2.8C620.3-85.1,621.2-83.7,621.9-82.2z"/>
					<path class="st1" d="M546.7-204.2L-23.9,366.4l63.4,63.4l570.6-570.6L546.7-204.2z"/>
					<path class="st4" d="M30.6,370.1c-3.2,0-6.5-1.2-8.9-3.7s-3.7-5.7-3.7-8.9c0-3.2,1.2-6.5,3.7-8.9c2.5-2.5,5.7-3.7,8.9-3.7
						c3.2,0,6.5,1.2,8.9,3.7c2.5,2.5,3.7,5.7,3.7,8.9c0,3.2-1.2,6.5-3.7,8.9C37,368.9,33.8,370.1,30.6,370.1z M102.9,303
						c2.5-2.5,3.7-5.7,3.7-8.9c0-3.2-1.2-6.5-3.7-8.9c-2.5-2.5-5.7-3.7-8.9-3.7s-6.5,1.2-8.9,3.7s-3.7,5.7-3.7,8.9
						c0,3.2,1.2,6.5,3.7,8.9c2.5,2.5,5.7,3.7,8.9,3.7C97.2,306.7,100.4,305.5,102.9,303z M166.3,239.6c2.5-2.5,3.7-5.7,3.7-8.9
						c0-3.2-1.2-6.5-3.7-8.9s-5.7-3.7-8.9-3.7c-3.2,0-6.5,1.2-8.9,3.7s-3.7,5.7-3.7,8.9c0,3.2,1.2,6.5,3.7,8.9
						c2.5,2.5,5.7,3.7,8.9,3.7C160.6,243.3,163.8,242.1,166.3,239.6z M229.7,176.2c2.5-2.5,3.7-5.7,3.7-8.9c0-3.2-1.2-6.5-3.7-8.9
						s-5.7-3.7-8.9-3.7c-3.2,0-6.5,1.2-8.9,3.7s-3.7,5.7-3.7,8.9c0,3.2,1.2,6.5,3.7,8.9s5.7,3.7,8.9,3.7
						C224,179.9,227.2,178.7,229.7,176.2z M293.1,112.8c2.5-2.5,3.7-5.7,3.7-8.9s-1.2-6.5-3.7-8.9s-5.7-3.7-8.9-3.7
						s-6.5,1.2-8.9,3.7s-3.7,5.7-3.7,8.9c0,3.2,1.2,6.5,3.7,8.9s5.7,3.7,8.9,3.7C287.4,116.5,290.6,115.3,293.1,112.8z M356.5,49.4
						c2.5-2.5,3.7-5.7,3.7-8.9c0-3.2-1.2-6.5-3.7-8.9s-5.7-3.7-8.9-3.7c-3.2,0-6.5,1.2-8.9,3.7s-3.7,5.7-3.7,8.9s1.2,6.5,3.7,8.9
						s5.7,3.7,8.9,3.7C350.8,53.1,354,51.9,356.5,49.4z M419.9-14c2.5-2.5,3.7-5.7,3.7-8.9c0-3.2-1.2-6.5-3.7-8.9s-5.7-3.7-8.9-3.7
						c-3.2,0-6.5,1.2-8.9,3.7c-2.5,2.5-3.7,5.7-3.7,8.9c0,3.2,1.2,6.5,3.7,8.9s5.7,3.7,8.9,3.7C414.2-10.3,417.4-11.5,419.9-14z
						 M483.3-77.4c2.5-2.5,3.7-5.7,3.7-8.9c0-3.2-1.2-6.5-3.7-8.9s-5.7-3.7-8.9-3.7c-3.2,0-6.5,1.2-8.9,3.7s-3.7,5.7-3.7,8.9
						c0,3.2,1.2,6.5,3.7,8.9s5.7,3.7,8.9,3.7C477.6-73.7,480.8-74.9,483.3-77.4z M546.7-140.8c2.5-2.5,3.7-5.7,3.7-8.9
						c0-3.2-1.2-6.5-3.7-8.9s-5.7-3.7-8.9-3.7c-3.2,0-6.5,1.2-8.9,3.7s-3.7,5.7-3.7,8.9c0,3.2,1.2,6.5,3.7,8.9s5.7,3.7,8.9,3.7
						C541-137.1,544.2-138.3,546.7-140.8z M570.5-180.3l0,31.6l0,31.6c0,0,0,0.1,0,0.1c0,0-0.1,0-0.1,0l-31.6,0l-31.6,0
						c0,0-0.1,0-0.1,0c0,0,0,0.1,0,0.1l0,31.6l0,31.6c0,0,0,0.1,0,0.1s-0.1,0-0.1,0l-31.6,0l-31.6,0c0,0-0.1,0-0.1,0
						c0,0,0,0.1,0,0.1l0,31.6l0,31.6c0,0,0,0.1,0,0.1s-0.1,0-0.1,0l-31.6,0l-31.6,0c0,0-0.1,0-0.1,0c0,0,0,0.1,0,0.1l0,31.6l0,31.6
						c0,0,0,0.1,0,0.1s-0.1,0-0.1,0l-31.6,0l-31.6,0c0,0-0.1,0-0.1,0s0,0.1,0,0.1l0,31.6l0,31.6c0,0,0,0.1,0,0.1s-0.1,0-0.1,0
						l-31.6,0l-31.6,0c0,0-0.1,0-0.1,0s0,0.1,0,0.1l0,31.6l0,31.6c0,0,0,0.1,0,0.1c0,0-0.1,0-0.1,0l-31.6,0l-31.6,0c0,0-0.1,0-0.1,0
						c0,0,0,0.1,0,0.1l0,31.6l0,31.6c0,0,0,0.1,0,0.1s-0.1,0-0.1,0l-31.6,0l-31.6,0c0,0-0.1,0-0.1,0s0,0.1,0,0.1l0,31.6l0,31.6
						c0,0,0,0.1,0,0.1s-0.1,0-0.1,0l-31.6,0l-31.6,0c0,0-0.1,0-0.1,0c0,0,0,0.1,0,0.1l0,31.6l0,31.6c0,0,0,0.1,0,0.1
						c0,0-0.1,0-0.1,0l-31.6,0l-31.6,0c0,0-0.1,0-0.1,0l39.6,39.6l570.6-570.6l-39.6-39.6C570.5-180.4,570.5-180.3,570.5-180.3z"/>
				</g>
			</g>
		</g>
	</g>
</g>
</svg>
